<svg width="17" height="16" viewBox="0 0 17 16" xmlns="http://www.w3.org/2000/svg"><path d="M15.8 3.7C13.4 0 8.5-1.1 4.7 1.2 1 3.5-.2 8.5 2.2 12.2l.2.3-.8 3 3-.8.3.2C6.2 15.6 7.6 16 9 16c1.5 0 3-.4 4.3-1.2 3.7-2.4 4.8-7.3 2.5-11.1zm-2.1 7.7c-.4.6-.9 1-1.6 1.1-.4 0-.9.2-2.9-.6-1.7-.8-3.1-2.1-4.1-3.6-.6-.7-.9-1.6-1-2.5 0-.8.3-1.5.8-2 .2-.2.4-.3.6-.3H6c.2 0 .4 0 .5.4.2.5.7 1.7.7 1.8.1.1.1.3 0 .4.1.2 0 .4-.1.5-.1.1-.2.3-.3.4-.2.1-.3.3-.2.5.4.6.9 1.2 1.4 1.7.6.5 1.2.9 1.9 1.2.2.1.4.1.5-.1.1-.2.6-.7.8-.9.2-.2.3-.2.5-.1l1.6.8c.2.1.4.2.5.3.1.3.1.7-.1 1z"/></svg>