<svg viewBox="0 0 813.53 52.52" xmlns="http://www.w3.org/2000/svg"><g fill="#fff"><path d="m42.22 1.59v49.71h-4.82l-30.16-36.22-3.54-4.24v40.46h-3.7v-44.87-4.84h.95l33.89 40.33 3.53 4.2v-44.53z"/><path d="m228.48 489.61a26.75 26.75 0 0 0 -5.77-8.41 27.09 27.09 0 0 0 -19-7.68 27.93 27.93 0 0 0 -18.93 7.36 25.54 25.54 0 0 0 -5.89 8.15 24.05 24.05 0 0 0 -2.16 10.14 26.92 26.92 0 0 0 2.08 10.56 26.21 26.21 0 0 0 14.19 14.27 27.91 27.91 0 0 0 20.95.06 28 28 0 0 0 8.62-5.5 26.47 26.47 0 0 0 5.86-8.24 24.49 24.49 0 0 0 2.15-10.32 25.88 25.88 0 0 0 -2.1-10.39zm-3.62 18.91a23.37 23.37 0 0 1 -5 7.11 22.91 22.91 0 0 1 -7.33 4.76 23.4 23.4 0 0 1 -8.93 1.73 23.84 23.84 0 0 1 -8.8-1.64 24.28 24.28 0 0 1 -7.38-4.55 21.64 21.64 0 0 1 -5.15-7 20.78 20.78 0 0 1 -1.92-8.86 22.82 22.82 0 0 1 1.79-9.09 22.18 22.18 0 0 1 4.9-7.18 21.77 21.77 0 0 1 7.41-4.71 25 25 0 0 1 9.07-1.65 24.69 24.69 0 0 1 8.86 1.61 23 23 0 0 1 7.37 4.57 22 22 0 0 1 5.07 7 21.34 21.34 0 0 1 1.87 8.92 21.61 21.61 0 0 1 -1.83 8.98z" transform="translate(-92.96 -473.52)"/><path d="m222.22 1.59-20.86 49.71h-6.62l-20.52-49.71h4.16l17.85 43.68 1.85 4.52 1.85-4.51 18-43.69z"/><path d="m403.65 489.61a26.42 26.42 0 0 0 -5.77-8.41 27.09 27.09 0 0 0 -19-7.68 27.93 27.93 0 0 0 -18.94 7.36 25.85 25.85 0 0 0 -5.94 8.12 24 24 0 0 0 -2.15 10.14 26.91 26.91 0 0 0 2.07 10.56 26.21 26.21 0 0 0 14.24 14.3 27.94 27.94 0 0 0 21 .06 28 28 0 0 0 8.61-5.5 26.31 26.31 0 0 0 5.86-8.24 24.34 24.34 0 0 0 2.12-10.32 25.71 25.71 0 0 0 -2.1-10.39zm-3.65 18.91a23.23 23.23 0 0 1 -5 7.11 22.91 22.91 0 0 1 -7.33 4.76 23.36 23.36 0 0 1 -8.93 1.73 23.92 23.92 0 0 1 -8.8-1.64 24.35 24.35 0 0 1 -7.37-4.55 21.64 21.64 0 0 1 -5.15-7 20.63 20.63 0 0 1 -1.92-8.86 23 23 0 0 1 1.78-9.09 22.05 22.05 0 0 1 4.91-7.18 21.82 21.82 0 0 1 7.4-4.71 25.06 25.06 0 0 1 9.08-1.65 24.6 24.6 0 0 1 8.85 1.61 22.91 22.91 0 0 1 7.37 4.57 21.86 21.86 0 0 1 5.07 7 21.19 21.19 0 0 1 1.88 8.92 21.61 21.61 0 0 1 -1.84 8.98z" transform="translate(-92.96 -473.52)"/><path d="m563.91 518.16a27.83 27.83 0 0 1 -8 5.47 28.07 28.07 0 0 1 -22 .34 26.2 26.2 0 0 1 -14.2-14.23 27 27 0 0 1 -2.08-10.57 24 24 0 0 1 2.22-10.17 25.82 25.82 0 0 1 5.88-8.16 27.93 27.93 0 0 1 18.91-7.35 26.77 26.77 0 0 1 10.62 2.11 27.82 27.82 0 0 1 7.28 4.55l-2.46 2.87a25 25 0 0 0 -6.09-3.72 23.88 23.88 0 0 0 -9.43-1.89 25 25 0 0 0 -9.07 1.65 21.77 21.77 0 0 0 -7.41 4.71 22.18 22.18 0 0 0 -4.9 7.18 22.82 22.82 0 0 0 -1.78 9.09 20.77 20.77 0 0 0 1.91 8.86 21.78 21.78 0 0 0 5.15 7 24.28 24.28 0 0 0 7.38 4.55 23.84 23.84 0 0 0 8.8 1.64 23 23 0 0 0 10.55-2.46 24.13 24.13 0 0 0 6.37-4.7z" transform="translate(-92.96 -473.52)"/><path d="m545.94 47.38v3.92h-33.66v-49.71h3.85v45.79z"/><path d="m584.5 1.59h3.7v49.71h-3.7z"/><path d="m677.05 1.59v49.71h-4.82l-30.16-36.22-3.54-4.24v40.46h-3.7v-44.87-4.84h.09.86l33.89 40.33 3.53 4.2v-44.53z"/><path d="m722.16 1.59h3.71v49.71h-3.71z"/><path d="m906.49 518.16a27.83 27.83 0 0 1 -8 5.47 27.21 27.21 0 0 1 -30.49-5.35 26.61 26.61 0 0 1 -5.69-8.54 27 27 0 0 1 -2.07-10.57 24 24 0 0 1 2.18-10.17 25.82 25.82 0 0 1 5.88-8.16 27.93 27.93 0 0 1 18.91-7.35 26.74 26.74 0 0 1 10.62 2.11 27.5 27.5 0 0 1 7.28 4.55l-2.45 2.87a25 25 0 0 0 -6.09-3.72 23.88 23.88 0 0 0 -9.43-1.89 25.06 25.06 0 0 0 -9.08 1.65 21.82 21.82 0 0 0 -7.4 4.71 22.05 22.05 0 0 0 -4.91 7.18 23 23 0 0 0 -1.78 9.09 20.63 20.63 0 0 0 1.92 8.86 21.64 21.64 0 0 0 5.15 7 24.35 24.35 0 0 0 7.37 4.55 23.92 23.92 0 0 0 8.8 1.64 23 23 0 0 0 10.56-2.46 24.29 24.29 0 0 0 6.37-4.7z" transform="translate(-92.96 -473.52)"/><circle cx="368.43" cy="26.26" r="3.99"/></g></svg>