<svg height="26" viewBox="0 0 178 26" width="178" xmlns="http://www.w3.org/2000/svg"><path d="M5.901 6.748V25H4.245V5.56c0-1.08-.252-1.908-.756-2.484-.48-.6-1.308-.9-2.484-.9H.753V1.24h2.448c1.248 0 2.28.18 3.096.54s1.512.9 2.088 1.62l12.492 14.904V1.24h1.656v23.976h-1.296zM34.903 25.36c-1.704 0-3.18-.384-4.428-1.152a7.966 7.966 0 01-2.88-3.168c-.672-1.344-1.008-2.844-1.008-4.5s.336-3.144 1.008-4.464c.672-1.344 1.632-2.4 2.88-3.168 1.248-.792 2.724-1.188 4.428-1.188s3.18.396 4.428 1.188a7.587 7.587 0 012.915 3.168c.672 1.32 1.008 2.808 1.008 4.464s-.335 3.156-1.007 4.5a7.884 7.884 0 01-2.917 3.168c-1.247.768-2.723 1.152-4.427 1.152zm0-1.548c1.272 0 2.268-.672 2.988-2.016.744-1.368 1.116-3.12 1.116-5.256s-.372-3.876-1.116-5.22c-.72-1.368-1.716-2.052-2.988-2.052s-2.268.684-2.988 2.052c-.72 1.344-1.08 3.084-1.08 5.22s.36 3.888 1.08 5.256c.72 1.344 1.716 2.016 2.988 2.016zM47.368 12.22c-.624-1.344-1.176-2.28-1.656-2.808-.48-.552-1.068-.852-1.764-.9v-.72l1.296-.072c1.464 0 2.724.324 3.78.972 1.08.624 2.016 1.8 2.808 3.528L55 19.456 59.968 8.08h1.871l-7.523 17.28h-1.08zm24.378 13.14c-1.704 0-3.18-.384-4.428-1.152a7.966 7.966 0 01-2.88-3.168c-.672-1.344-1.008-2.844-1.008-4.5s.336-3.144 1.008-4.464c.672-1.344 1.632-2.4 2.88-3.168 1.248-.792 2.724-1.188 4.428-1.188s3.18.396 4.428 1.188a7.587 7.587 0 012.916 3.168c.672 1.32 1.008 2.808 1.008 4.464s-.336 3.156-1.008 4.5a7.884 7.884 0 01-2.916 3.168c-1.248.768-2.724 1.152-4.428 1.152zm0-1.548c1.272 0 2.268-.672 2.988-2.016.744-1.368 1.116-3.12 1.116-5.256s-.372-3.876-1.116-5.22c-.72-1.368-1.716-2.052-2.988-2.052s-2.268.684-2.988 2.052c-.72 1.344-1.08 3.084-1.08 5.22s.36 3.888 1.08 5.256c.72 1.344 1.716 2.016 2.988 2.016zm13.787 1.692c-.624 0-1.128-.192-1.512-.576-.384-.408-.576-.924-.576-1.548 0-.6.192-1.092.576-1.476.384-.408.888-.612 1.512-.612s1.128.204 1.512.612c.384.384.576.876.576 1.476 0 .624-.192 1.14-.576 1.548-.384.384-.888.576-1.512.576zm16.243.216c-2.376 0-4.44-.528-6.192-1.584a10.785 10.785 0 01-4.032-4.392c-.912-1.872-1.368-3.96-1.368-6.264 0-2.376.504-4.548 1.512-6.516 1.032-1.992 2.436-3.564 4.212-4.716S99.64.52 101.776.52c2.016 0 3.744.276 5.184.828 1.44.528 2.52 1.224 3.24 2.088.408.528.66 1.2.756 2.016.096.792.144 1.932.144 3.42h-.936c-.912-4.536-3.348-6.804-7.308-6.804-2.52 0-4.524.888-6.012 2.664s-2.232 4.692-2.232 8.748c0 1.92.288 3.684.864 5.292s1.476 2.916 2.7 3.924c1.248.984 2.808 1.476 4.68 1.476 1.704 0 3.24-.432 4.608-1.296 1.368-.888 2.508-2.16 3.42-3.816l1.044.792c-1.128 2.064-2.508 3.564-4.14 4.5-1.608.912-3.612 1.368-6.012 1.368zm13.675-19.944c0-1.224-.168-2.124-.504-2.7-.336-.6-1.008-.9-2.016-.9h-.504V1.24h3.888c.864 0 1.524.132 1.98.396s.78.72.972 1.368c.192.624.288 1.548.288 2.772V25h-4.104zm11.447.288c-.744 0-1.332-.252-1.764-.756s-.648-1.116-.648-1.836c0-.552.168-.996.504-1.332.36-.336.804-.504 1.332-.504.744 0 1.332.252 1.764.756.456.48.684 1.08.684 1.8 0 .576-.18 1.032-.54 1.368-.336.336-.78.504-1.332.504zm-1.944 6.552c0-1.224-.168-2.124-.504-2.7-.336-.6-1.008-.9-2.016-.9h-.504V8.08h3.888c.864 0 1.524.132 1.98.396s.78.72.972 1.368c.192.624.288 1.548.288 2.772V25h-4.104zm9.317 0c0-1.224-.168-2.124-.504-2.7-.336-.6-1.008-.9-2.016-.9h-.504V8.08h3.456c.84 0 1.488.108 1.944.324.48.216.84.564 1.08 1.044 1.32-1.152 3.024-1.728 5.112-1.728 2.064 0 3.66.516 4.788 1.548 1.152 1.008 1.728 2.676 1.728 5.004V25h-4.068V14.272c0-1.656-.336-2.868-1.008-3.636-.672-.792-1.548-1.188-2.628-1.188-1.248 0-2.352.432-3.312 1.296V25h-4.068zm22.123-6.552c-.744 0-1.332-.252-1.764-.756s-.648-1.116-.648-1.836c0-.552.168-.996.504-1.332.36-.336.804-.504 1.332-.504.744 0 1.332.252 1.764.756.456.48.684 1.08.684 1.8 0 .576-.18 1.032-.54 1.368-.336.336-.78.504-1.332.504zm-1.944 6.552c0-1.224-.168-2.124-.504-2.7-.336-.6-1.008-.9-2.016-.9h-.504V8.08h3.888c.864 0 1.524.132 1.98.396s.78.72.972 1.368c.192.624.288 1.548.288 2.772V25h-4.104zm16.085 12.744c-1.8 0-3.324-.384-4.572-1.152a7.463 7.463 0 01-2.808-3.168c-.624-1.344-.936-2.844-.936-4.5s.312-3.144.936-4.464a7.195 7.195 0 012.808-3.168c1.248-.792 2.772-1.188 4.572-1.188 2.784 0 4.596.42 5.436 1.26.408.408.66.936.756 1.584.096.624.144 1.728.144 3.312h-.936c-.096-1.512-.564-2.652-1.404-3.42-.84-.792-1.956-1.188-3.348-1.188-1.488 0-2.652.648-3.492 1.944-.816 1.272-1.224 3.048-1.224 5.328 0 2.304.396 4.092 1.188 5.364.816 1.272 2.016 1.908 3.6 1.908 1.176 0 2.16-.24 2.952-.72.792-.504 1.536-1.248 2.232-2.232l.972.72c-.72 1.176-1.632 2.1-2.736 2.772-1.08.672-2.46 1.008-4.14 1.008z"/></svg>