<svg viewBox="0 0 813.53 52.52" xmlns="http://www.w3.org/2000/svg"><path d="M42.22 1.59V51.3H37.4L7.24 15.08 3.7 10.84V51.3H0V1.59h.95l33.89 40.33 3.53 4.2V1.59zm93.3 14.5a26.75 26.75 0 00-5.77-8.41 27.09 27.09 0 00-19-7.68 27.93 27.93 0 00-18.93 7.36 25.54 25.54 0 00-5.89 8.15 24.05 24.05 0 00-2.16 10.14 26.92 26.92 0 002.08 10.56 26.21 26.21 0 0014.19 14.27 27.91 27.91 0 0020.95.06 28 28 0 008.62-5.5 26.47 26.47 0 005.86-8.24 24.49 24.49 0 002.15-10.32 25.88 25.88 0 00-2.1-10.39zM131.9 35a23.37 23.37 0 01-5 7.11 22.91 22.91 0 01-7.33 4.76 23.4 23.4 0 01-8.93 1.73 23.84 23.84 0 01-8.8-1.64 24.28 24.28 0 01-7.38-4.55 21.64 21.64 0 01-5.15-7 20.78 20.78 0 01-1.92-8.86 22.82 22.82 0 011.79-9.09 22.18 22.18 0 014.9-7.18 21.77 21.77 0 017.41-4.71 25 25 0 019.07-1.65 24.69 24.69 0 018.86 1.61 23 23 0 017.37 4.57 22 22 0 015.07 7 21.34 21.34 0 011.87 8.92A21.61 21.61 0 01131.9 35zm90.32-33.41L201.36 51.3h-6.62L174.22 1.59h4.16l17.85 43.68 1.85 4.52 1.85-4.51 18-43.69zm88.47 14.5a26.42 26.42 0 00-5.77-8.41 27.09 27.09 0 00-19-7.68 27.93 27.93 0 00-18.94 7.36 25.85 25.85 0 00-5.94 8.12 24 24 0 00-2.15 10.14 26.91 26.91 0 002.07 10.56 26.21 26.21 0 0014.24 14.3 27.94 27.94 0 0021 .06 28 28 0 008.61-5.5 26.31 26.31 0 005.86-8.24 24.34 24.34 0 002.12-10.32 25.71 25.71 0 00-2.1-10.39zM307.04 35a23.23 23.23 0 01-5 7.11 22.91 22.91 0 01-7.33 4.76 23.36 23.36 0 01-8.93 1.73 23.92 23.92 0 01-8.8-1.64 24.35 24.35 0 01-7.37-4.55 21.64 21.64 0 01-5.15-7 20.63 20.63 0 01-1.92-8.86 23 23 0 011.78-9.09 22.05 22.05 0 014.91-7.18 21.82 21.82 0 017.4-4.71 25.06 25.06 0 019.08-1.65 24.6 24.6 0 018.85 1.61 22.91 22.91 0 017.37 4.57 21.86 21.86 0 015.07 7 21.19 21.19 0 011.88 8.92 21.61 21.61 0 01-1.84 8.98zm163.91 9.64a27.83 27.83 0 01-8 5.47 28.07 28.07 0 01-22 .34 26.2 26.2 0 01-14.2-14.23 27 27 0 01-2.08-10.57 24 24 0 012.22-10.17 25.82 25.82 0 015.88-8.16 27.93 27.93 0 0118.91-7.35 26.77 26.77 0 0110.62 2.11 27.82 27.82 0 017.28 4.55l-2.46 2.87a25 25 0 00-6.09-3.72 23.88 23.88 0 00-9.43-1.89 25 25 0 00-9.07 1.65 21.77 21.77 0 00-7.41 4.71 22.18 22.18 0 00-4.9 7.18 22.82 22.82 0 00-1.78 9.09 20.77 20.77 0 001.91 8.86 21.78 21.78 0 005.15 7 24.28 24.28 0 007.38 4.55 23.84 23.84 0 008.8 1.64 23 23 0 0010.55-2.46 24.13 24.13 0 006.37-4.7zm74.99 2.74v3.92h-33.66V1.59h3.85v45.79zM584.5 1.59h3.7V51.3h-3.7zm92.55 0V51.3h-4.82l-30.16-36.22-3.54-4.24V51.3h-3.7V1.59h.95l33.89 40.33 3.53 4.2V1.59zm45.11 0h3.71V51.3h-3.71zm91.37 43.05a27.83 27.83 0 01-8 5.47 27.21 27.21 0 01-30.49-5.35 26.61 26.61 0 01-5.69-8.54 27 27 0 01-2.07-10.57 24 24 0 012.18-10.17 25.82 25.82 0 015.88-8.16 27.93 27.93 0 0118.91-7.35 26.74 26.74 0 0110.62 2.11 27.5 27.5 0 017.28 4.55L809.7 9.5a25 25 0 00-6.09-3.72 23.88 23.88 0 00-9.43-1.89 25.06 25.06 0 00-9.08 1.65 21.82 21.82 0 00-7.4 4.71 22.05 22.05 0 00-4.91 7.18 23 23 0 00-1.78 9.09 20.63 20.63 0 001.92 8.86 21.64 21.64 0 005.15 7 24.35 24.35 0 007.37 4.55 23.92 23.92 0 008.8 1.64 23 23 0 0010.56-2.46 24.29 24.29 0 006.37-4.7z"/><circle cx="368.43" cy="26.26" r="3.99"/></svg>